<svg width="24" height="24" viewBox="0 0 24 24" fill="none" xmlns="http://www.w3.org/2000/svg">
<path d="M19.9602 8.96039C19.2902 8.22039 18.2802 7.79039 16.8802 7.64039V6.88039C16.8802 5.51039 16.3002 4.19039 15.2802 3.27039C14.2502 2.33039 12.9102 1.89039 11.5202 2.02039C9.13023 2.25039 7.12023 4.56039 7.12023 7.06039V7.64039C5.72023 7.79039 4.71023 8.22039 4.04023 8.96039C3.07023 10.0404 3.10023 11.4804 3.21023 12.4804L3.91023 18.0504C4.12023 20.0004 4.91023 22.0004 9.21023 22.0004H14.7902C19.0902 22.0004 19.8802 20.0004 20.0902 18.0604L20.7902 12.4704C20.9002 11.4804 20.9202 10.0404 19.9602 8.96039ZM11.6602 3.41039C12.6602 3.32039 13.6102 3.63039 14.3502 4.30039C15.0802 4.96039 15.4902 5.90039 15.4902 6.88039V7.58039H8.51023V7.06039C8.51023 5.28039 9.98023 3.57039 11.6602 3.41039ZM8.42023 13.1504H8.41023C7.86023 13.1504 7.41023 12.7004 7.41023 12.1504C7.41023 11.6004 7.86023 11.1504 8.41023 11.1504C8.97023 11.1504 9.42023 11.6004 9.42023 12.1504C9.42023 12.7004 8.97023 13.1504 8.42023 13.1504ZM15.4202 13.1504H15.4102C14.8602 13.1504 14.4102 12.7004 14.4102 12.1504C14.4102 11.6004 14.8602 11.1504 15.4102 11.1504C15.9702 11.1504 16.4202 11.6004 16.4202 12.1504C16.4202 12.7004 15.9702 13.1504 15.4202 13.1504Z" fill="white"/>
</svg>
