<svg width="150" height="149" viewBox="0 0 150 149" fill="none" xmlns="http://www.w3.org/2000/svg">
<circle cx="70" cy="70.2158" r="70" fill="#CFF2E5"/>
<g clip-path="url(#clip0_467_19186)">
<path d="M99.0114 85.455H59.7996L49.4355 50.3105H107.265L99.0114 85.455Z" fill="white"/>
<path d="M62.7166 50.3105H49.4355L59.7996 85.455H99.0114L101.42 75.1986H96.0037C80.6178 75.1986 67.0685 65.0682 62.7166 50.3105V50.3105Z" fill="#E6E7E8"/>
<path d="M64.9351 108.847C68.3338 108.847 71.0889 106.098 71.0889 102.706C71.0889 99.3149 68.3338 96.5654 64.9351 96.5654C61.5364 96.5654 58.7812 99.3149 58.7812 102.706C58.7812 106.098 61.5364 108.847 64.9351 108.847Z" fill="#58B694"/>
<path d="M91.9449 108.847C95.3435 108.847 98.0987 106.098 98.0987 102.706C98.0987 99.3149 95.3435 96.5654 91.9449 96.5654C88.5462 96.5654 85.791 99.3149 85.791 102.706C85.791 106.098 88.5462 108.847 91.9449 108.847Z" fill="#58B694"/>
<path d="M107.685 47.5757H51.4807L47.3429 33.5444C46.9998 32.3813 45.9321 31.583 44.7195 31.583H30V37.0531H42.6745L57.1764 86.2288C57.5195 87.3919 58.5872 88.1902 59.7998 88.1902H99.0116C100.281 88.1902 101.384 87.3165 101.674 86.0804L109.928 50.9358C110.263 49.5054 109.417 47.9432 107.685 47.5757V47.5757ZM96.8444 82.7201H61.8448L53.0938 53.0457H103.813L96.8444 82.7201Z" fill="#3C3F3E"/>
<path d="M66.1826 59.9023H91.7096V65.3724H66.1826V59.9023Z" fill="#58B694"/>
<path d="M66.1826 70.1592H91.7096V75.6293H66.1826V70.1592Z" fill="#58B694"/>
</g>
<defs>
<clipPath id="clip0_467_19186">
<rect width="80" height="80" fill="white" transform="translate(30 30.2158)"/>
</clipPath>
</defs>
</svg>
