<svg width="24" height="25" viewBox="0 0 24 25" fill="none" xmlns="http://www.w3.org/2000/svg">
<g clip-path="url(#clip0_6_2078)">
<path d="M0 12.5C0 19.1274 5.37258 24.5 12 24.5C18.6274 24.5 24 19.1274 24 12.5C24 5.87258 18.6274 0.5 12 0.5C5.37258 0.5 0 5.87258 0 12.5Z" fill="#5186EE"/>
<path d="M13.1584 19.2193V13.0886H15.3197L15.6434 10.6994H13.1583V9.17404C13.1583 8.48231 13.3601 8.01092 14.4019 8.01092L15.7308 8.01033V5.87343C15.5009 5.84436 14.7121 5.7793 13.7945 5.7793C11.8785 5.7793 10.5668 6.8927 10.5668 8.93748V10.6994H8.3999V13.0886H10.5668V19.2193H13.1584Z" fill="white"/>
</g>
<defs>
<clipPath id="clip0_6_2078">
<rect width="24" height="24" fill="white" transform="translate(0 0.5)"/>
</clipPath>
</defs>
</svg>
