<svg width="16" height="16" viewBox="0 0 16 16" fill="none" xmlns="http://www.w3.org/2000/svg">
    <path
        d="M4.77129 10.0209C4.83253 9.76347 4.72119 9.39576 4.52634 9.21191L3.17356 7.93543C2.75047 7.5362 2.58346 7.11071 2.70593 6.743C2.83397 6.37529 3.22923 6.12315 3.81933 6.0286L5.55624 5.75544C5.80675 5.71342 6.11294 5.5033 6.22985 5.28793L7.18737 3.47565C7.46572 2.9556 7.84428 2.66669 8.25624 2.66669C8.66819 2.66669 9.04675 2.9556 9.3251 3.47565L10.2826 5.28793C10.355 5.4245 10.5053 5.55583 10.6667 5.64513L4.67108 11.3026C4.59315 11.3761 4.45954 11.3078 4.48181 11.2028L4.77129 10.0209Z"
        fill="#FFC32A" />
    <path
        d="M11.5028 9.34498C11.3049 9.53739 11.195 9.90616 11.2609 10.168L11.6402 11.7767C11.7996 12.4448 11.7006 12.9472 11.3599 13.1877C11.2225 13.2839 11.0576 13.332 10.8652 13.332C10.5849 13.332 10.2551 13.2304 9.89229 13.022L8.2818 12.0921C8.02896 11.9478 7.61123 11.9478 7.35838 12.0921L5.7479 13.022C5.13778 13.3694 4.61561 13.4282 4.28032 13.1877C4.1539 13.0968 4.06046 12.9739 4 12.8136L10.6838 6.31465C10.9366 6.0688 11.2939 5.95656 11.6402 6.01535L12.1953 6.10621C12.778 6.20241 13.1682 6.45895 13.2946 6.83306C13.4156 7.20718 13.2507 7.64008 12.8329 8.04627L11.5028 9.34498Z"
        fill="#FBEAC0" />
</svg>
