<svg width="60" height="60" viewBox="0 0 60 60" fill="none" xmlns="http://www.w3.org/2000/svg">
<path d="M39.2403 0C42.9698 0 45.9932 5.39285 45.9932 9.96204C45.9932 14.5313 42.9698 18.2354 39.2403 18.2354C35.5108 18.2354 32.4873 14.5312 32.4873 9.96204C32.4873 5.39285 35.5108 0 39.2403 0Z" fill="#58B694"/>
<path d="M20.7588 0C24.4883 0 27.5118 5.39285 27.5118 9.96204C27.5118 14.5313 24.4884 18.2354 20.7588 18.2354C17.0292 18.2354 14.0059 14.5312 14.0059 9.96204C14.0059 5.39285 17.0292 0 20.7588 0Z" fill="#58B694"/>
<path d="M1.30864 23.8266C-0.25657 20.1041 0.428867 14.7496 3.55337 13.5641C6.67787 12.3785 11.0582 15.8109 12.6235 19.5333C14.1888 23.2558 12.9247 27.2346 9.80024 28.4201C6.67573 29.6057 2.87392 27.5491 1.30864 23.8266Z" fill="#58B694"/>
<path d="M58.6915 23.8266C57.1262 27.5491 53.3244 29.6057 50.1999 28.4201C47.0754 27.2346 45.8114 23.2558 47.3766 19.5333C48.9418 15.8109 53.3221 12.3785 56.4467 13.5641C59.5713 14.7496 60.2568 20.1041 58.6915 23.8266Z" fill="#58B694"/>
<ellipse cx="29.1475" cy="41.4903" rx="18.7588" ry="18.5098" fill="#58B694"/>
<path d="M41.1509 37.3521C41.6113 35.2831 42.1639 30.7118 39.308 30.2421C37.2944 29.9112 33.1514 30.5451 32.0198 32.502C31.1593 32.2013 30.2487 31.947 29.3684 31.9491C28.488 31.947 27.5771 32.2013 26.7167 32.502C25.585 30.5451 21.4417 29.9112 19.4284 30.2421C16.5718 30.712 17.1249 35.2831 17.5853 37.3521C15.3543 39.9773 16.3225 43.774 16.4908 47.1867C16.6788 50.9941 18.8153 52.1885 22.6115 51.8446C24.7168 51.6538 26.816 50.7139 26.8215 48.4886C26.8227 47.8568 26.8078 42.3846 26.7598 42.3899C27.6292 42.3846 28.4988 42.3932 29.3682 42.4076C30.2371 42.3929 31.1067 42.3844 31.9761 42.3899C31.9282 42.3846 31.9135 47.8568 31.9144 48.4886C31.92 50.7139 34.0191 51.6538 36.1245 51.8446C39.9212 52.1885 42.0574 50.9944 42.2454 47.1867C42.4134 43.774 43.3823 39.9773 41.1509 37.3521ZM36.0454 32.5465C36.9522 32.3137 37.8946 32.1648 38.8341 32.1987C39.5854 32.2257 39.4635 34.4143 39.2795 35.8645C37.6107 34.8728 35.8553 34.0014 34.0427 33.2761C34.2245 33.196 34.5187 33.0237 34.6142 32.9849C35.0762 32.7989 35.5629 32.6701 36.0454 32.5465ZM19.9018 32.1987C20.8283 32.1142 21.7985 32.3371 22.6905 32.5465C23.1781 32.6605 23.6537 32.8138 24.1217 32.9851C24.2189 33.0204 24.5129 33.1946 24.6942 33.2758C22.879 34.0021 21.1209 34.8752 19.4504 35.8682C19.2592 34.428 19.1312 32.2688 19.9018 32.1987ZM40.522 42.0723C40.3907 44.0605 40.4632 46.2751 40.0557 48.2244C39.6394 50.2082 37.5984 50.1836 35.8005 49.7779C35.0591 49.6105 34.0032 49.2005 34.0027 48.8197C33.9998 47.6982 33.9969 46.577 33.9948 45.4553C33.9904 43.6289 34.5761 40.9738 32.3584 40.4498C32.2454 40.4082 32.1203 40.3803 31.9766 40.3794C31.1957 40.3745 30.295 40.3135 29.3687 40.2763C28.4419 40.3137 27.5407 40.375 26.7598 40.3796C26.6161 40.3806 26.4913 40.4084 26.3785 40.45C24.1605 40.974 24.7465 43.6289 24.7417 45.4555C24.7393 46.5772 24.7366 47.6984 24.7342 48.8199C24.7332 49.2007 23.6773 49.6107 22.9361 49.7782C21.138 50.1838 19.0968 50.2084 18.681 48.2246C18.2729 46.2751 18.3455 44.0608 18.2141 42.0723C18.0394 39.4302 19.3378 38.2284 21.5721 36.9818C23.4228 35.9493 25.39 35.0811 27.4125 34.4133C28.0932 34.1886 28.7403 34.1075 29.3684 34.1252C29.9963 34.1075 30.6432 34.1886 31.3239 34.4133C33.3464 35.0811 35.3137 35.949 37.1645 36.9818C39.3984 38.2284 40.6966 39.4302 40.522 42.0723Z" fill="white"/>
<path d="M21.8796 47.3113C22.4247 47.3113 22.8666 46.8856 22.8666 46.3605C22.8666 45.8354 22.4247 45.4097 21.8796 45.4097C21.3345 45.4097 20.8926 45.8354 20.8926 46.3605C20.8926 46.8856 21.3345 47.3113 21.8796 47.3113Z" fill="white"/>
<path d="M36.8562 47.3113C37.4013 47.3113 37.8432 46.8856 37.8432 46.3605C37.8432 45.8354 37.4013 45.4097 36.8562 45.4097C36.311 45.4097 35.8691 45.8354 35.8691 46.3605C35.8691 46.8856 36.311 47.3113 36.8562 47.3113Z" fill="white"/>
<path d="M30.2739 49.4909C30.2486 49.6402 30.1623 49.6997 30.0098 49.7038C29.8355 49.708 29.7772 49.6312 29.6916 49.5065C29.6827 49.4935 29.6709 49.486 29.661 49.4751C29.6709 49.18 29.7015 48.8893 29.6971 48.5968C29.9249 48.4946 30.1011 48.2965 30.3303 48.0959C30.7112 47.762 30.64 47.2849 29.3691 47.2373C28.0977 47.2849 28.0266 47.7623 28.4079 48.0959C28.6501 48.3079 28.8323 48.5188 29.0801 48.6153C29.09 48.9165 29.0449 49.2209 29.0343 49.5223C28.9502 49.6428 28.8984 49.6927 28.7285 49.7036C28.5759 49.7124 28.4874 49.6302 28.464 49.4907C28.3992 49.1076 27.7959 49.2708 27.8603 49.6507C27.9261 50.0403 28.2748 50.259 28.654 50.3043C28.9434 50.3382 29.1731 50.2379 29.3592 50.0716C29.4002 50.1116 29.4441 50.1489 29.4981 50.1826C29.6634 50.2845 29.8931 50.3092 30.0838 50.3043C30.4622 50.2943 30.8162 50.0143 30.8775 49.6507C30.9421 49.271 30.339 49.1078 30.2739 49.4909Z" fill="white"/>
</svg>
