<svg width="104" height="107" viewBox="0 0 104 107" fill="none" xmlns="http://www.w3.org/2000/svg">
<path d="M68.0954 0C74.5914 0 79.8573 9.54511 79.8573 17.6324C79.8573 25.7198 74.5914 32.2759 68.0954 32.2759C61.5996 32.2759 56.3335 25.7197 56.3335 17.6324C56.3335 9.54511 61.5996 0 68.0954 0Z" fill="white"/>
<path d="M35.905 0C42.4008 0 47.6669 9.54511 47.6669 17.6324C47.6669 25.7198 42.4009 32.2759 35.905 32.2759C29.409 32.2759 24.1431 25.7197 24.1431 17.6324C24.1431 9.54511 29.409 0 35.905 0Z" fill="white"/>
<path d="M2.02758 42.1727C-0.698609 35.584 0.495245 26.1068 5.93732 24.0083C11.3794 21.9099 19.0088 27.9851 21.7351 34.5737C24.4614 41.1624 22.2598 48.2047 16.8177 50.303C11.3757 52.4014 4.75389 48.7614 2.02758 42.1727Z" fill="white"/>
<path d="M101.972 42.1727C99.2462 48.7614 92.6244 52.4014 87.1824 50.303C81.7402 48.2045 79.5387 41.1624 82.2649 34.5737C84.9911 27.9851 92.6204 21.9099 98.0626 24.0083C103.505 26.1068 104.699 35.584 101.972 42.1727Z" fill="white"/>
<ellipse cx="50.5148" cy="73.4359" rx="32.673" ry="32.7616" fill="white"/>
<path d="M71.4239 66.1115C72.2258 62.4494 73.1884 54.3584 68.2141 53.527C64.707 52.9414 57.4909 54.0633 55.5199 57.5269C54.0211 56.9947 52.4351 56.5447 50.902 56.5484C49.3684 56.5447 47.7819 56.9947 46.2832 57.5269C44.3122 54.0633 37.0957 52.9414 33.589 53.527C28.6134 54.3588 29.5769 62.4494 30.3787 66.1115C26.493 70.7579 28.1794 77.4779 28.4724 83.5183C28.7998 90.2572 32.521 92.3712 39.133 91.7626C42.8001 91.4248 46.4562 89.7612 46.4658 85.8225C46.4679 84.7043 46.4419 75.0187 46.3584 75.0282C47.8726 75.0187 49.3873 75.0339 50.9015 75.0594C52.415 75.0335 53.9296 75.0183 55.4439 75.0282C55.3603 75.0187 55.3347 84.7043 55.3364 85.8225C55.3461 89.7612 59.0022 91.4248 62.6692 91.7626C69.2821 92.3712 73.0028 90.2577 73.3303 83.5183C73.6229 77.4779 75.3105 70.7579 71.4239 66.1115ZM62.5315 57.6058C64.1108 57.1936 65.7523 56.9302 67.3887 56.9902C68.6973 57.0378 68.4848 60.9116 68.1645 63.4785C65.2578 61.7232 62.2003 60.1809 59.0433 58.897C59.3599 58.7553 59.8724 58.4503 60.0387 58.3817C60.8435 58.0525 61.6911 57.8244 62.5315 57.6058ZM34.4135 56.9902C36.0273 56.8406 37.717 57.2351 39.2707 57.6058C40.12 57.8076 40.9483 58.0788 41.7636 58.3821C41.9327 58.4446 42.4449 58.7528 42.7606 58.8966C39.599 60.1821 36.5369 61.7273 33.6272 63.485C33.2943 60.9358 33.0714 57.1143 34.4135 56.9902ZM70.3286 74.466C70.0998 77.9851 70.2262 81.9048 69.5163 85.3549C68.7913 88.8661 65.2364 88.8226 62.105 88.1046C60.8137 87.8083 58.9745 87.0826 58.9736 86.4086C58.9686 84.4236 58.9636 82.4391 58.9598 80.4537C58.9522 77.2211 59.9724 72.5217 56.1097 71.5942C55.9128 71.5206 55.6949 71.4713 55.4447 71.4696C54.0845 71.461 52.5157 71.3529 50.9024 71.2872C49.2882 71.3533 47.7185 71.4618 46.3584 71.4701C46.1082 71.4717 45.8907 71.521 45.6942 71.5946C41.8311 72.5221 42.8517 77.2211 42.8433 80.4541C42.8391 82.4395 42.8345 84.424 42.8303 86.409C42.8286 87.083 40.9894 87.8087 39.6985 88.105C36.5667 88.823 33.0114 88.8665 32.2872 85.3553C31.5765 81.9048 31.7028 77.9855 31.474 74.466C31.1697 69.7896 33.4312 67.6625 37.3228 65.456C40.5461 63.6285 43.9726 62.0919 47.4952 60.9099C48.6808 60.5121 49.8079 60.3687 50.902 60.3999C51.9956 60.3687 53.1223 60.5121 54.3079 60.9099C57.8305 62.0919 61.257 63.628 64.4807 65.456C68.3715 67.6625 70.6326 69.7896 70.3286 74.466Z" fill="#58B694"/>
<path d="M37.8578 83.7388C38.8072 83.7388 39.5769 82.9854 39.5769 82.0559C39.5769 81.1265 38.8072 80.373 37.8578 80.373C36.9083 80.373 36.1387 81.1265 36.1387 82.0559C36.1387 82.9854 36.9083 83.7388 37.8578 83.7388Z" fill="#58B694"/>
<path d="M63.9432 83.7388C64.8927 83.7388 65.6624 82.9854 65.6624 82.0559C65.6624 81.1265 64.8927 80.373 63.9432 80.373C62.9938 80.373 62.2241 81.1265 62.2241 82.0559C62.2241 82.9854 62.9938 83.7388 63.9432 83.7388Z" fill="#58B694"/>
<path d="M52.4775 87.5977C52.4334 87.8619 52.2831 87.9672 52.0174 87.9746C51.7138 87.982 51.6122 87.8459 51.4632 87.6252C51.4477 87.6022 51.4271 87.5891 51.4099 87.5698C51.4271 87.0474 51.4804 86.5329 51.4729 86.0151C51.8696 85.8343 52.1765 85.4837 52.5757 85.1286C53.239 84.5377 53.1152 83.6931 50.9015 83.6089C48.687 83.6931 48.5632 84.5381 49.2273 85.1286C49.6492 85.5038 49.9666 85.877 50.3981 86.048C50.4154 86.581 50.3369 87.1197 50.3184 87.6532C50.1719 87.8665 50.0816 87.9548 49.7856 87.9741C49.5199 87.9898 49.3658 87.8443 49.3251 87.5973C49.2122 86.9192 48.1614 87.2081 48.2735 87.8804C48.3881 88.57 48.9956 88.9572 49.6559 89.0373C50.1601 89.0973 50.5602 88.9198 50.8843 88.6255C50.9557 88.6962 51.0321 88.7624 51.1261 88.822C51.4141 89.0024 51.8142 89.0459 52.1462 89.0373C52.8053 89.0196 53.422 88.524 53.5287 87.8804C53.6412 87.2085 52.5908 86.9196 52.4775 87.5977Z" fill="#58B694"/>
</svg>
