<svg width="46" height="46" viewBox="0 0 46 46" fill="none" xmlns="http://www.w3.org/2000/svg">
<path d="M16.4445 5.87219L41.8164 24.7394C40.4005 26.6513 40.7958 29.3538 42.7077 30.7769L35.8436 39.9984C33.9317 38.5825 31.2292 38.9778 29.8133 40.8897L4.43422 22.0153C5.85734 20.1034 5.45484 17.4009 3.54297 15.985L10.407 6.75625C12.3189 8.17938 15.0142 7.77688 16.4445 5.87219Z" fill="#65BC6A"/>
<path d="M44.7062 26.8812C45.0224 27.1184 45.0871 27.5712 44.8499 27.8875L42.7081 30.7768C40.7962 29.3537 40.4009 26.6512 41.8168 24.7393L44.7062 26.8812ZM35.844 39.9984L33.7021 42.8878C33.4649 43.204 33.0121 43.2687 32.6959 43.0315L29.8137 40.8897C31.2296 38.9778 33.9321 38.5825 35.844 39.9984ZM26.989 18.1843C29.8496 20.319 30.4462 24.3728 28.3187 27.2406C26.184 30.1084 22.1303 30.6978 19.2696 28.5703C16.4018 26.4356 15.8053 22.3818 17.9328 19.5212C20.0674 16.6534 24.1212 16.0568 26.989 18.1843Z" fill="#398F3E"/>
<path d="M20.1242 27.4153C20.2529 27.5109 20.4038 27.5576 20.5526 27.5576C20.7726 27.5576 20.9889 27.4577 21.1298 27.2679L21.74 26.4471C21.7889 26.4543 21.8349 26.468 21.8845 26.4715C21.9369 26.4751 21.9894 26.4773 22.0411 26.4773C23.1602 26.4773 24.1083 25.609 24.1909 24.4763C24.2182 24.0982 24.1456 23.7195 23.9803 23.3795C23.9049 23.2242 23.8107 23.0783 23.7 22.9454C23.6591 22.8915 23.6109 22.8426 23.5556 22.8016C23.4017 22.6866 23.3011 22.5191 23.2731 22.3294C23.2451 22.1396 23.2925 21.9499 23.4075 21.7961C23.5218 21.6423 23.69 21.5416 23.8797 21.5136C24.0709 21.4863 24.2592 21.5337 24.4137 21.6487C24.5165 21.7249 24.5941 21.8234 24.6445 21.9391C24.6696 21.9973 24.6869 22.0591 24.6962 22.121C24.7544 22.5141 25.121 22.7836 25.512 22.7276C25.9044 22.6694 26.1761 22.305 26.1186 21.9118C26.0913 21.7256 26.0396 21.5438 25.9648 21.3706C25.9131 21.2505 25.8376 21.1442 25.765 21.0364L26.2775 20.3471C26.5147 20.0287 26.4485 19.5787 26.1294 19.3415C25.8117 19.1051 25.3611 19.1705 25.1239 19.4896L24.6171 20.171C24.3138 20.0768 23.9933 20.0438 23.6713 20.0919C23.1013 20.176 22.5982 20.4765 22.2546 20.9386C21.5661 21.8651 21.7328 23.1675 22.6169 23.892C22.6442 23.9286 22.6679 23.9674 22.688 24.0084C22.7434 24.1227 22.7671 24.2456 22.7577 24.3735C22.729 24.7688 22.3739 25.0678 21.9894 25.0384C21.7975 25.0247 21.6228 24.937 21.4978 24.7918C21.372 24.6466 21.3102 24.4612 21.3246 24.27C21.3533 23.874 21.055 23.5297 20.6597 23.501C20.2486 23.4744 19.9194 23.7705 19.8906 24.1658C19.849 24.7401 20.0337 25.2964 20.411 25.732C20.424 25.747 20.4398 25.7571 20.4527 25.7715L19.9783 26.4097C19.739 26.7289 19.8051 27.1788 20.1242 27.4153ZM4.43465 22.0153L24.4303 36.8862H24.4231L4.88027 30.669C5.60621 28.3978 4.3484 25.9756 2.07715 25.2497L2.87496 22.7412L3.35652 21.2175L4.43465 22.0153Z" fill="#65BC6A"/>
<path d="M24.4235 36.8863L17.4013 34.651L2.99758 23.9416L2.58789 23.6397L2.87539 22.7413L3.35695 21.2175L4.43508 22.0153L24.4235 36.8863Z" fill="#398F3E"/>
<path d="M26.0547 38.0938H7.1875C7.1875 35.7147 5.25406 33.7813 2.875 33.7813V30.0294L4.88031 30.6691L24.4231 36.8863H24.4303L26.0547 38.0938Z" fill="#65BC6A"/>
<path d="M26.0547 38.0938H21.4403L4.88031 32.8254L2.875 32.1857V30.0294L4.88031 30.6691L24.4231 36.8863H24.4303L26.0547 38.0938Z" fill="#29752B"/>
<path d="M43.1247 33.7812V37.375C43.1247 37.7703 42.8013 38.0938 42.406 38.0938H40.2354L40.4366 37.4541L41.5075 34.0975C42.0035 33.8891 42.5497 33.7812 43.1247 33.7812Z" fill="#236823"/>
<path d="M43.125 30.2091V33.7813C42.55 33.7813 42.0037 33.8891 41.5078 34.0975L42.4566 31.1147V31.1075L42.7081 30.7769L43.125 30.2091Z" fill="#29752B"/>
<path d="M42.4566 31.1147L41.5079 34.0976L40.437 37.4541C39.9266 37.2888 39.402 37.2313 38.8916 37.2601C38.4891 37.2816 38.0938 37.3607 37.7129 37.4901L42.4566 31.1147Z" fill="#65BC6A"/>
<path d="M40.437 37.4541L40.2358 38.0938L39.3445 40.8825C39.2295 41.2563 38.8198 41.4647 38.4461 41.3497L35.5352 40.4225L35.8442 39.9984L37.713 37.49C38.0939 37.3606 38.4892 37.2816 38.8917 37.26C39.402 37.2313 39.9267 37.2887 40.437 37.4541ZM43.1252 18.6875V21.7206L41.6948 21.2606L39.747 20.6425H39.7398C39.1577 19.9094 38.8127 18.9822 38.8127 17.9688H42.4064C42.8017 17.9688 43.1252 18.2922 43.1252 18.6875Z" fill="#398F3E"/>
<path d="M39.74 20.6425L33.7528 18.7378H33.7456L32.7178 17.9688H38.8128C38.8128 18.9822 39.1578 19.9094 39.74 20.6425Z" fill="#65BC6A"/>
<path d="M7.66863 10.4363L6.1377 12.4991V12.4919L6.87082 10.1847L7.66863 10.4363Z" fill="#398F3E"/>
<path d="M7.18756 38.0937H3.59381C3.19849 38.0937 2.87506 37.7703 2.87506 37.3749V33.7812C5.25412 33.7812 7.18756 35.7146 7.18756 38.0937ZM2.07724 25.2496C4.34849 25.9756 5.60631 28.3978 4.88037 30.669L2.87506 30.0293L1.45193 29.5765C1.07818 29.4615 0.869744 29.0518 0.984744 28.6781L2.07724 25.2496ZM16.4451 5.86494V5.87213C15.0147 7.77682 12.3194 8.17932 10.4076 6.75619L12.5566 3.87401C12.7866 3.55057 13.2394 3.48588 13.5557 3.72307L16.4451 5.86494ZM3.54349 15.9849C5.45537 17.4009 5.85787 20.1034 4.43474 22.0153L1.55256 19.8734C1.22912 19.6362 1.16443 19.1834 1.40162 18.8671L3.54349 15.9849Z" fill="#398F3E"/>
<path d="M41.6736 21.3253C41.3645 22.1662 41.3142 23.5103 41.5082 24.5022L33.7529 18.7378L39.7401 20.6425H39.7473L41.6951 21.2606L41.6736 21.3253Z" fill="#65BC6A"/>
<path d="M41.5079 24.5022C41.3138 23.5103 41.3641 22.1662 41.6732 21.3253L41.6948 21.2606L43.1251 21.7206L44.5482 22.1734C44.922 22.2884 45.1304 22.6981 45.0154 23.0719L43.9732 26.335L41.817 24.7394L41.5079 24.5022ZM42.4566 31.1147L41.5079 34.0975L40.437 37.4541C39.9266 37.2887 39.402 37.2312 38.8916 37.26C38.4891 37.2816 38.0938 37.3606 37.7129 37.49L42.4566 31.1147Z" fill="#398F3E"/>
<path d="M38.8917 37.26C38.4892 37.2816 38.0939 37.3606 37.713 37.49L36.4695 39.1647L35.8442 39.9985L35.5352 40.4225L37.8567 41.1628L38.4461 41.3497C38.8198 41.4647 39.2295 41.2563 39.3445 40.8825L40.2358 38.0938L40.3077 37.8638L40.437 37.4541C39.9267 37.2888 39.402 37.2313 38.8917 37.26Z" fill="#29752B"/>
<path d="M40.4944 20.8797L39.747 20.6425H39.7398C39.5816 20.4485 39.4451 20.24 39.3301 20.0172L40.4944 20.8797Z" fill="#236823"/>
<path d="M39.74 20.6425L33.7528 18.7378H33.7456L32.7178 17.9688H36.5775L39.3303 20.0172C39.4453 20.24 39.5818 20.4484 39.74 20.6425Z" fill="#29752B"/>
<path d="M41.422 22.5112C41.4579 22.2165 41.5011 21.929 41.5657 21.6775L40.4948 20.8797L39.7473 20.6425H39.7401L33.7529 18.7378L40.9836 24.114L41.5082 24.5022C41.3932 23.9056 41.3645 23.1797 41.422 22.5112Z" fill="#398F3E"/>
<path d="M43.9082 26.2846L44.052 26.0906L43.9729 26.335L43.9082 26.2846Z" fill="#398F3E"/>
<path d="M44.706 24.0062L41.8166 21.8644L41.5651 21.6775C41.5004 21.9291 41.4573 22.2166 41.4213 22.5112C41.3638 23.1797 41.3926 23.9056 41.5076 24.5022L41.8166 24.7394L43.9082 26.2847L44.052 26.0906L44.7132 24.0134L44.706 24.0062Z" fill="#29752B"/>
</svg>
