<svg width="24" height="24" viewBox="0 0 24 24" fill="none" xmlns="http://www.w3.org/2000/svg">
<path d="M5.5 10C4.125 10 3 11.125 3 12.5C3 13.875 4.125 15 5.5 15C6.875 15 8 13.875 8 12.5C8 11.125 6.875 10 5.5 10Z" fill="#58B694"/>
<path d="M19.5 10C18.125 10 17 11.125 17 12.5C17 13.875 18.125 15 19.5 15C20.875 15 22 13.875 22 12.5C22 11.125 20.875 10 19.5 10Z" fill="#58B694"/>
<path d="M12.5 10C11.125 10 10 11.125 10 12.5C10 13.875 11.125 15 12.5 15C13.875 15 15 13.875 15 12.5C15 11.125 13.875 10 12.5 10Z" fill="#58B694"/>
</svg>
