<svg width="142" height="140" viewBox="0 0 142 140" fill="none" xmlns="http://www.w3.org/2000/svg">
<circle cx="70" cy="70" r="70" fill="#CFF2E5"/>
<g clip-path="url(#clip0_5426_5089)">
<path d="M98.3255 59.0418C98.3255 44.8196 87.0311 33.2332 72.9164 32.751C58.0265 32.2425 45.7612 44.0004 45.6762 58.8884C45.6241 68.0375 50.246 76.111 57.295 80.8638L72.0007 107.294L86.7063 80.8638C93.7159 76.1377 98.3255 68.1278 98.3255 59.0418Z" fill="white"/>
<path d="M66.013 74.0236C58.9639 69.2708 54.342 61.1973 54.3942 52.0482C54.4306 45.6814 56.6957 39.8884 60.4398 35.3809C51.7444 39.6096 45.7355 48.4839 45.6762 58.8884C45.6241 68.0374 50.246 76.1109 57.295 80.8638L72.0007 107.294L78.2625 96.0393L66.013 74.0236Z" fill="#E6E7E8"/>
<path d="M72.0005 72.9215C79.7419 72.9215 86.0176 66.6435 86.0176 58.8991C86.0176 51.1547 79.7419 44.8767 72.0005 44.8767C64.2591 44.8767 57.9834 51.1547 57.9834 58.8991C57.9834 66.6435 64.2591 72.9215 72.0005 72.9215Z" fill="#58B694"/>
<path d="M69.6103 108.625L55.2151 82.752C47.4628 77.2642 42.8865 68.3877 42.9409 58.8727C43.0334 42.6592 56.8262 29.4645 73.0093 30.0165C88.4428 30.544 101.06 43.591 101.06 59.0418C101.06 68.4886 96.4843 77.3016 88.7854 82.752L74.39 108.625C73.3677 110.543 70.2908 110.372 69.6103 108.625ZM71.9802 35.4712C59.15 35.4712 48.4842 46.0689 48.4108 58.904C48.3659 66.8074 52.2583 74.1684 58.8233 78.5951C59.1801 78.8356 59.4751 79.1572 59.6845 79.5332L72.0002 101.668L84.316 79.5332C84.5254 79.1572 84.8202 78.8356 85.1771 78.5951C91.6973 74.1989 95.59 66.8891 95.59 59.0418C95.59 46.1165 84.885 35.4712 71.9802 35.4712Z" fill="#3C3F3E"/>
</g>
<defs>
<clipPath id="clip0_5426_5089">
<rect width="80" height="80" fill="white" transform="translate(32 30)"/>
</clipPath>
</defs>
</svg>
