<svg width="140" height="140" viewBox="0 0 140 140" fill="none" xmlns="http://www.w3.org/2000/svg">
<circle cx="70" cy="70" r="70" fill="#CFF2E5"/>
<g clip-path="url(#clip0_467_19425)">
<path d="M107.37 107.379C103.868 110.874 98.1939 110.873 94.6924 107.378L62.4998 75.2418L75.1904 62.5762L107.37 94.6996C110.877 98.1999 110.877 103.879 107.37 107.379V107.379Z" fill="#58B694"/>
<path d="M59.3609 85.8882C74.066 85.8882 85.9867 73.9895 85.9867 59.3118C85.9867 44.634 74.066 32.7354 59.3609 32.7354C44.6559 32.7354 32.7351 44.634 32.7351 59.3118C32.7351 73.9895 44.6559 85.8882 59.3609 85.8882Z" fill="white"/>
<path d="M67.9079 77.3408C53.203 77.3408 41.2821 65.442 41.2821 50.7644C41.2821 45.6216 42.7471 40.8211 45.2811 36.7529C37.7481 41.4471 32.7351 49.7943 32.7351 59.3114C32.7351 73.9892 44.656 85.8878 59.3609 85.8878C68.9136 85.8878 77.2898 80.8654 81.9878 73.3228C77.903 75.8681 73.0782 77.3408 67.9079 77.3408V77.3408Z" fill="#E6E7E8"/>
<path d="M59.3609 88.6227C43.1713 88.6227 30 75.4737 30 59.3115C30 43.1492 43.1713 30 59.3609 30C75.5504 30 88.7217 43.1491 88.7217 59.3115C88.7217 75.4738 75.5504 88.6227 59.3609 88.6227ZM59.3609 35.4701C46.1875 35.4701 35.4701 46.1653 35.4701 59.3115C35.4701 72.4576 46.1875 83.1528 59.3609 83.1528C72.5342 83.1528 83.2516 72.4576 83.2516 59.3115C83.2516 46.1653 72.5344 35.4701 59.3609 35.4701Z" fill="#3C3F3E"/>
<path d="M43.5044 70.0801C41.3266 66.8955 40.1753 63.1719 40.1753 59.3116C40.1753 55.3918 41.3594 51.6203 43.5994 48.4053L48.0876 51.5323C46.49 53.8254 45.6454 56.5155 45.6454 59.3116C45.6454 62.0651 46.4664 64.7212 48.0196 66.9921L43.5044 70.0801Z" fill="#58B694"/>
</g>
<defs>
<clipPath id="clip0_467_19425">
<rect width="80" height="80" fill="white" transform="translate(30 30)"/>
</clipPath>
</defs>
</svg>
