<svg width="132" height="132" viewBox="0 0 132 132" fill="none" xmlns="http://www.w3.org/2000/svg">
<path d="M66 0C52.9465 0 40.186 3.87083 29.3324 11.123C18.4788 18.3752 10.0194 28.683 5.02398 40.7429C0.0285968 52.8028 -1.27842 66.0732 1.2682 78.876C3.81483 91.6787 10.1007 103.439 19.331 112.669C28.5613 121.899 40.3213 128.185 53.1241 130.732C65.9268 133.278 79.1972 131.971 91.2571 126.976C103.317 121.981 113.625 113.521 120.877 102.668C128.129 91.814 132 79.0536 132 66C131.967 48.506 125.002 31.7381 112.632 19.368C100.262 6.99787 83.494 0.0335456 66 0ZM97.4135 54.45L60.225 89.9885C59.2636 90.8929 57.9911 91.3928 56.6712 91.3846C56.026 91.3939 55.3854 91.2753 54.7864 91.0356C54.1873 90.796 53.6416 90.4401 53.1808 89.9885L34.5866 72.2192C34.0708 71.7693 33.6514 71.2197 33.3535 70.6035C33.0556 69.9873 32.8853 69.3172 32.853 68.6336C32.8206 67.9499 32.9269 67.2668 33.1653 66.6252C33.4037 65.9836 33.7693 65.3969 34.2403 64.9003C34.7112 64.4036 35.2778 64.0073 35.9058 63.7352C36.5338 63.4631 37.2103 63.3208 37.8947 63.3168C38.5792 63.3128 39.2573 63.4473 39.8885 63.7121C40.5196 63.9769 41.0907 64.3666 41.5673 64.8577L56.6712 79.2635L90.4327 47.0885C91.4199 46.2272 92.7018 45.7809 94.0103 45.8428C95.3189 45.9047 96.5529 46.4701 97.4543 47.4207C98.3558 48.3713 98.8548 49.6335 98.8472 50.9436C98.8396 52.2536 98.3259 53.5099 97.4135 54.45Z" fill="white"/>
</svg>
