<svg width="229" height="233" viewBox="0 0 229 233" fill="none" xmlns="http://www.w3.org/2000/svg">
<g opacity="0.1">
<path d="M150.364 0C164.84 0 176.575 20.9315 176.575 38.6661C176.575 56.401 164.84 70.7778 150.364 70.7778C135.889 70.7778 124.154 56.4007 124.154 38.6661C124.154 20.9315 135.889 0 150.364 0Z" fill="#58B694"/>
<path d="M78.6315 0C93.107 0 104.842 20.9315 104.842 38.6661C104.842 56.401 93.1073 70.7778 78.6315 70.7778C64.1557 70.7778 52.4209 56.4007 52.4209 38.6661C52.4209 20.9315 64.1557 0 78.6315 0Z" fill="#58B694"/>
<path d="M3.1386 92.48C-2.93651 78.0317 -0.276093 57.249 11.8512 52.6474C23.9785 48.0458 40.98 61.3681 47.0554 75.8162C53.1308 90.2646 48.2247 105.708 36.0974 110.309C23.9702 114.911 9.21399 106.928 3.1386 92.48Z" fill="#58B694"/>
<path d="M225.861 92.48C219.786 106.928 205.03 114.911 192.903 110.309C180.775 105.707 175.869 90.2646 181.944 75.8162C188.02 61.3681 205.021 48.0458 217.148 52.6474C229.276 57.249 231.937 78.0317 225.861 92.48Z" fill="#58B694"/>
<ellipse cx="111.191" cy="161.038" rx="72.8096" ry="71.843" fill="#58B694"/>
</g>
</svg>
