<svg width="16" height="16" viewBox="0 0 16 16" fill="none" xmlns="http://www.w3.org/2000/svg">
<mask id="path-1-inside-1_6_1103" fill="white">
<path d="M12.6875 10.375C11.7614 10.375 10.9385 10.8251 10.4257 11.5178L6.011 9.26175C6.08506 9.01013 6.125 8.74403 6.125 8.46875C6.125 8.09591 6.05191 7.73987 5.91956 7.41397L10.5464 4.63403C11.0627 5.23997 11.8309 5.625 12.6875 5.625C14.2383 5.625 15.5 4.36331 15.5 2.8125C15.5 1.26169 14.2383 0 12.6875 0C11.1367 0 9.875 1.26169 9.875 2.8125C9.875 3.17094 9.94253 3.51384 10.0653 3.82938L5.42688 6.61625C4.911 6.02819 4.15441 5.65625 3.3125 5.65625C1.76169 5.65625 0.5 6.91794 0.5 8.46875C0.5 10.0196 1.76169 11.2812 3.3125 11.2812C4.25381 11.2812 5.0885 10.8164 5.59928 10.1042L10.0012 12.3537C9.91919 12.6173 9.875 12.8973 9.875 13.1875C9.875 14.7383 11.1367 16 12.6875 16C14.2383 16 15.5 14.7383 15.5 13.1875C15.5 11.6367 14.2383 10.375 12.6875 10.375ZM12.6875 0.9375C13.7214 0.9375 14.5625 1.77863 14.5625 2.8125C14.5625 3.84637 13.7214 4.6875 12.6875 4.6875C11.6536 4.6875 10.8125 3.84637 10.8125 2.8125C10.8125 1.77863 11.6536 0.9375 12.6875 0.9375ZM3.3125 10.3438C2.27863 10.3438 1.4375 9.50262 1.4375 8.46875C1.4375 7.43488 2.27863 6.59375 3.3125 6.59375C4.34637 6.59375 5.1875 7.43488 5.1875 8.46875C5.1875 9.50262 4.34637 10.3438 3.3125 10.3438ZM12.6875 15.0625C11.6536 15.0625 10.8125 14.2214 10.8125 13.1875C10.8125 12.1536 11.6536 11.3125 12.6875 11.3125C13.7214 11.3125 14.5625 12.1536 14.5625 13.1875C14.5625 14.2214 13.7214 15.0625 12.6875 15.0625Z"/>
</mask>
<path d="M12.6875 10.375C11.7614 10.375 10.9385 10.8251 10.4257 11.5178L6.011 9.26175C6.08506 9.01013 6.125 8.74403 6.125 8.46875C6.125 8.09591 6.05191 7.73987 5.91956 7.41397L10.5464 4.63403C11.0627 5.23997 11.8309 5.625 12.6875 5.625C14.2383 5.625 15.5 4.36331 15.5 2.8125C15.5 1.26169 14.2383 0 12.6875 0C11.1367 0 9.875 1.26169 9.875 2.8125C9.875 3.17094 9.94253 3.51384 10.0653 3.82938L5.42688 6.61625C4.911 6.02819 4.15441 5.65625 3.3125 5.65625C1.76169 5.65625 0.5 6.91794 0.5 8.46875C0.5 10.0196 1.76169 11.2812 3.3125 11.2812C4.25381 11.2812 5.0885 10.8164 5.59928 10.1042L10.0012 12.3537C9.91919 12.6173 9.875 12.8973 9.875 13.1875C9.875 14.7383 11.1367 16 12.6875 16C14.2383 16 15.5 14.7383 15.5 13.1875C15.5 11.6367 14.2383 10.375 12.6875 10.375ZM12.6875 0.9375C13.7214 0.9375 14.5625 1.77863 14.5625 2.8125C14.5625 3.84637 13.7214 4.6875 12.6875 4.6875C11.6536 4.6875 10.8125 3.84637 10.8125 2.8125C10.8125 1.77863 11.6536 0.9375 12.6875 0.9375ZM3.3125 10.3438C2.27863 10.3438 1.4375 9.50262 1.4375 8.46875C1.4375 7.43488 2.27863 6.59375 3.3125 6.59375C4.34637 6.59375 5.1875 7.43488 5.1875 8.46875C5.1875 9.50262 4.34637 10.3438 3.3125 10.3438ZM12.6875 15.0625C11.6536 15.0625 10.8125 14.2214 10.8125 13.1875C10.8125 12.1536 11.6536 11.3125 12.6875 11.3125C13.7214 11.3125 14.5625 12.1536 14.5625 13.1875C14.5625 14.2214 13.7214 15.0625 12.6875 15.0625Z" fill="black"/>
<path d="M10.4257 11.5178L9.87961 12.5864L10.7852 13.0492L11.3902 12.2318L10.4257 11.5178ZM6.011 9.26175L4.85983 8.92292L4.57887 9.87749L5.46492 10.3303L6.011 9.26175ZM5.91956 7.41397L5.30154 6.38535L4.42143 6.91415L4.80774 7.86546L5.91956 7.41397ZM10.5464 4.63403L11.4599 3.8558L10.8003 3.08159L9.92842 3.60541L10.5464 4.63403ZM10.0653 3.82938L10.6833 4.85799L11.5505 4.33699L11.1836 3.39421L10.0653 3.82938ZM5.42688 6.61625L4.52479 7.4076L5.18575 8.16106L6.04489 7.64487L5.42688 6.61625ZM5.59928 10.1042L6.14535 9.03563L5.22592 8.56577L4.62415 9.40482L5.59928 10.1042ZM10.0012 12.3537L11.147 12.7101L11.4471 11.7451L10.5472 11.2852L10.0012 12.3537ZM12.6875 9.175C11.3635 9.175 10.1896 9.81975 9.46116 10.8039L11.3902 12.2318C11.6873 11.8304 12.1593 11.575 12.6875 11.575V9.175ZM10.9718 10.4493L6.55708 8.1932L5.46492 10.3303L9.87961 12.5864L10.9718 10.4493ZM7.16217 9.60058C7.26806 9.24081 7.325 8.86068 7.325 8.46875H4.925C4.925 8.62739 4.90206 8.77944 4.85983 8.92292L7.16217 9.60058ZM7.325 8.46875C7.325 7.9378 7.2207 7.42867 7.03139 6.96248L4.80774 7.86546C4.88311 8.05108 4.925 8.25401 4.925 8.46875H7.325ZM6.53758 8.44259L11.1645 5.66265L9.92842 3.60541L5.30154 6.38535L6.53758 8.44259ZM9.63301 5.41226C10.3666 6.27333 11.4633 6.825 12.6875 6.825V4.425C12.1986 4.425 11.7588 4.20661 11.4599 3.8558L9.63301 5.41226ZM12.6875 6.825C14.9011 6.825 16.7 5.02605 16.7 2.8125H14.3C14.3 3.70057 13.5756 4.425 12.6875 4.425V6.825ZM16.7 2.8125C16.7 0.598946 14.9011 -1.2 12.6875 -1.2V1.2C13.5756 1.2 14.3 1.92443 14.3 2.8125H16.7ZM12.6875 -1.2C10.4739 -1.2 8.675 0.598946 8.675 2.8125H11.075C11.075 1.92443 11.7994 1.2 12.6875 1.2V-1.2ZM8.675 2.8125C8.675 3.3228 8.77133 3.81309 8.947 4.26454L11.1836 3.39421C11.1137 3.21459 11.075 3.01908 11.075 2.8125H8.675ZM9.4473 2.80076L4.80886 5.58763L6.04489 7.64487L10.6833 4.85799L9.4473 2.80076ZM6.32896 5.8249C5.59581 4.98915 4.51562 4.45625 3.3125 4.45625V6.85625C3.7932 6.85625 4.22619 7.06722 4.52479 7.4076L6.32896 5.8249ZM3.3125 4.45625C1.09895 4.45625 -0.7 6.2552 -0.7 8.46875H1.7C1.7 7.58068 2.42443 6.85625 3.3125 6.85625V4.45625ZM-0.7 8.46875C-0.7 10.6823 1.09895 12.4812 3.3125 12.4812V10.0813C2.42443 10.0813 1.7 9.35682 1.7 8.46875H-0.7ZM3.3125 12.4812C4.65823 12.4812 5.84876 11.8153 6.57442 10.8036L4.62415 9.40482C4.32824 9.81741 3.8494 10.0813 3.3125 10.0813V12.4812ZM5.05321 11.1727L9.45508 13.4223L10.5472 11.2852L6.14535 9.03563L5.05321 11.1727ZM8.85529 11.9974C8.73792 12.3747 8.675 12.7749 8.675 13.1875H11.075C11.075 13.0198 11.1005 12.8598 11.147 12.7101L8.85529 11.9974ZM8.675 13.1875C8.675 15.4011 10.4739 17.2 12.6875 17.2V14.8C11.7994 14.8 11.075 14.0756 11.075 13.1875H8.675ZM12.6875 17.2C14.9011 17.2 16.7 15.4011 16.7 13.1875H14.3C14.3 14.0756 13.5756 14.8 12.6875 14.8V17.2ZM16.7 13.1875C16.7 10.9739 14.9011 9.175 12.6875 9.175V11.575C13.5756 11.575 14.3 12.2994 14.3 13.1875H16.7ZM12.6875 2.1375C13.0586 2.1375 13.3625 2.44137 13.3625 2.8125H15.7625C15.7625 1.11588 14.3841 -0.2625 12.6875 -0.2625V2.1375ZM13.3625 2.8125C13.3625 3.18363 13.0586 3.4875 12.6875 3.4875V5.8875C14.3841 5.8875 15.7625 4.50912 15.7625 2.8125H13.3625ZM12.6875 3.4875C12.3164 3.4875 12.0125 3.18363 12.0125 2.8125H9.6125C9.6125 4.50912 10.9909 5.8875 12.6875 5.8875V3.4875ZM12.0125 2.8125C12.0125 2.44137 12.3164 2.1375 12.6875 2.1375V-0.2625C10.9909 -0.2625 9.6125 1.11588 9.6125 2.8125H12.0125ZM3.3125 9.14375C2.94137 9.14375 2.6375 8.83988 2.6375 8.46875H0.2375C0.2375 10.1654 1.61588 11.5437 3.3125 11.5437V9.14375ZM2.6375 8.46875C2.6375 8.09762 2.94137 7.79375 3.3125 7.79375V5.39375C1.61588 5.39375 0.2375 6.77213 0.2375 8.46875H2.6375ZM3.3125 7.79375C3.68363 7.79375 3.9875 8.09762 3.9875 8.46875H6.3875C6.3875 6.77213 5.00912 5.39375 3.3125 5.39375V7.79375ZM3.9875 8.46875C3.9875 8.83988 3.68363 9.14375 3.3125 9.14375V11.5437C5.00912 11.5437 6.3875 10.1654 6.3875 8.46875H3.9875ZM12.6875 13.8625C12.3164 13.8625 12.0125 13.5586 12.0125 13.1875H9.6125C9.6125 14.8841 10.9909 16.2625 12.6875 16.2625V13.8625ZM12.0125 13.1875C12.0125 12.8164 12.3164 12.5125 12.6875 12.5125V10.1125C10.9909 10.1125 9.6125 11.4909 9.6125 13.1875H12.0125ZM12.6875 12.5125C13.0586 12.5125 13.3625 12.8164 13.3625 13.1875H15.7625C15.7625 11.4909 14.3841 10.1125 12.6875 10.1125V12.5125ZM13.3625 13.1875C13.3625 13.5586 13.0586 13.8625 12.6875 13.8625V16.2625C14.3841 16.2625 15.7625 14.8841 15.7625 13.1875H13.3625Z" fill="black" mask="url(#path-1-inside-1_6_1103)"/>
</svg>
