<svg width="16" height="17" viewBox="0 0 16 17" fill="none" xmlns="http://www.w3.org/2000/svg">
<path d="M8.92614 3.93765L9.86614 5.83038C9.99281 6.09214 10.3328 6.34048 10.6195 6.39417L12.3195 6.67607C13.4061 6.85729 13.6595 7.64928 12.8795 8.44128L11.5528 9.77693C11.3328 9.99842 11.2061 10.4347 11.2795 10.7501L11.6595 12.4012C11.9595 13.7033 11.2661 14.2134 10.1261 13.5288L8.53281 12.5758C8.24614 12.4012 7.76614 12.4012 7.47947 12.5758L5.88614 13.5288C4.74614 14.2067 4.05281 13.7033 4.35281 12.4012L4.73281 10.7501C4.79281 10.428 4.66614 9.99171 4.44614 9.77022L3.11947 8.43456C2.33947 7.64928 2.59281 6.85729 3.67947 6.66936L5.37947 6.38746C5.66614 6.34048 6.00614 6.08543 6.13281 5.82367L7.07281 3.93094C7.58614 2.91074 8.41281 2.91074 8.92614 3.93765Z" fill="#FFC32B"/>
</svg>
