<svg width="46" height="46" viewBox="0 0 46 46" fill="none" xmlns="http://www.w3.org/2000/svg">
<g clip-path="url(#clip0_305_2782)">
<path fill-rule="evenodd" clip-rule="evenodd" d="M45.9997 23.3194C45.9997 20.0483 44.4153 17.4672 41.387 17.4672C38.3459 17.4672 36.5059 20.0483 36.5059 23.2938C36.5059 27.14 38.6781 29.0822 41.7958 29.0822C43.3164 29.0822 44.4664 28.7372 45.3353 28.2516V25.696C44.4663 26.1305 43.4697 26.3988 42.2047 26.3988C40.9653 26.3988 39.8663 25.9643 39.7258 24.4566H45.9741C45.9742 24.2904 45.9997 23.626 45.9997 23.3194ZM39.6876 22.1054C39.6876 20.6615 40.5692 20.0609 41.3742 20.0609C42.1537 20.0609 42.9842 20.6615 42.9842 22.1054H39.6876Z" fill="#635BFF"/>
<path fill-rule="evenodd" clip-rule="evenodd" d="M31.5735 17.4672C30.3213 17.4672 29.5162 18.0549 29.069 18.4639L28.9029 17.6716H26.0918V32.5706L29.2862 31.8934L29.299 28.2773C29.759 28.6095 30.4362 29.0823 31.5606 29.0823C33.8479 29.0823 35.9307 27.2422 35.9307 23.1917C35.918 19.4861 33.8096 17.4672 31.5735 17.4672ZM30.8068 26.2711C30.0529 26.2711 29.6057 26.0027 29.299 25.6705L29.2862 20.9299C29.6185 20.5593 30.0785 20.3038 30.8068 20.3038C31.9696 20.3038 32.7746 21.6071 32.7746 23.281C32.7747 24.9933 31.9824 26.2711 30.8068 26.2711Z" fill="#635BFF"/>
<path fill-rule="evenodd" clip-rule="evenodd" d="M21.6963 16.7133L24.9035 16.0233V13.4294L21.6963 14.1067V16.7133Z" fill="#635BFF"/>
<path d="M24.9035 17.6843H21.6963V28.8649H24.9035V17.6843Z" fill="#635BFF"/>
<path fill-rule="evenodd" clip-rule="evenodd" d="M18.2594 18.63L18.0549 17.6844H15.2949V28.8649H18.4894V21.2877C19.2432 20.3038 20.521 20.4827 20.9171 20.6233V17.6844C20.5083 17.5311 19.0132 17.25 18.2594 18.63Z" fill="#635BFF"/>
<path fill-rule="evenodd" clip-rule="evenodd" d="M11.8708 14.9116L8.75299 15.5761L8.74023 25.811C8.74023 27.7022 10.1585 29.095 12.0497 29.095C13.0975 29.095 13.8641 28.9033 14.2858 28.6733V26.0794C13.8769 26.2455 11.8581 26.8332 11.8581 24.9422V20.4061H14.2858V17.6845H11.8581L11.8708 14.9116Z" fill="#635BFF"/>
<path fill-rule="evenodd" clip-rule="evenodd" d="M3.23281 20.9299C3.23281 20.4315 3.64167 20.2399 4.31889 20.2399C5.28997 20.2399 6.51665 20.5338 7.48783 21.0577V18.0549C6.42726 17.6333 5.37945 17.4672 4.31889 17.4672C1.72502 17.4672 0 18.8216 0 21.0832C0 24.6099 4.8556 24.0477 4.8556 25.5682C4.8556 26.1561 4.34449 26.3477 3.62892 26.3477C2.56835 26.3477 1.21392 25.9132 0.1406 25.3255V28.3666C1.32892 28.8777 2.53008 29.0949 3.62892 29.0949C6.28666 29.0949 8.11392 27.7788 8.11392 25.4916C8.10116 21.6838 3.23281 22.361 3.23281 20.9299Z" fill="#635BFF"/>
</g>
<defs>
<clipPath id="clip0_305_2782">
<rect width="46" height="46" fill="white"/>
</clipPath>
</defs>
</svg>
