<svg width="16" height="16" viewBox="0 0 16 16" fill="none" xmlns="http://www.w3.org/2000/svg">
<path d="M11.8374 5.33277L11.8374 5.33288L11.8477 5.33458L14.3972 5.75735C14.3973 5.75737 14.3974 5.75738 14.3974 5.75739C15.1244 5.87867 15.4021 6.17314 15.473 6.39606C15.5445 6.62109 15.4873 7.02864 14.9639 7.56038C14.9637 7.56063 14.9635 7.56088 14.9632 7.56113L12.9747 9.5631C12.735 9.80445 12.5699 10.1336 12.4784 10.456C12.3868 10.7788 12.3536 11.1488 12.4323 11.4879C12.4323 11.4881 12.4324 11.4883 12.4324 11.4885L13.0022 13.9641L13.0022 13.9642C13.2173 14.8975 13.0141 15.294 12.8532 15.4124C12.6949 15.5288 12.2629 15.6047 11.4469 15.1147L11.4461 15.1142L9.05758 13.6855C8.74513 13.4959 8.36215 13.4174 8.00945 13.4174C7.65675 13.4174 7.27375 13.4959 6.9613 13.6855L4.5739 15.1136C4.57374 15.1136 4.57357 15.1137 4.57341 15.1138C3.75717 15.5991 3.3241 15.5246 3.16491 15.408C3.00503 15.2909 2.80159 14.8978 3.01669 13.9642L3.01672 13.9641L3.58672 11.4874L3.58908 11.4772L3.591 11.4668C3.6535 11.1312 3.616 10.7659 3.52193 10.4436C3.42833 10.1229 3.26394 9.79439 3.0242 9.55303L1.0342 7.54955C0.511338 7.02315 0.454472 6.61822 0.525934 6.39354C0.597267 6.16926 0.876536 5.87308 1.60302 5.74707L4.15032 5.32467C4.15042 5.32465 4.15053 5.32463 4.15063 5.32462C4.46631 5.27281 4.77482 5.11619 5.02418 4.92942C5.273 4.74307 5.5091 4.49216 5.6483 4.20589L7.0561 1.3712C7.05629 1.37083 7.05647 1.37046 7.05666 1.37009C7.40622 0.675979 7.77518 0.499443 7.9982 0.500002C8.22166 0.500561 8.59178 0.679486 8.94182 1.3793C8.94195 1.37956 8.94209 1.37983 8.94222 1.3801L10.3506 4.21603C10.4907 4.50408 10.7283 4.75265 10.9763 4.9369C11.2259 5.12232 11.53 5.2752 11.8374 5.33277Z" stroke="#58B694"/>
</svg>
